<svg width="36" height="34" viewBox="0 0 36 34" fill="none" xmlns="http://www.w3.org/2000/svg">
<path d="M18.4478 24C18.0268 24 17.8936 24 17.8541 24C17.2569 24 16.6739 23.8781 16.1256 23.6416V23.6416C14.7601 23.0529 13.7668 21.8144 13.6028 20.3366C13.5579 19.9325 13.5229 19.5376 13.5104 19.2088C13.4678 18.0925 13.5104 16.5574 13.5104 16.5574H16.9567V19.2787C16.9567 19.831 17.4045 20.2787 17.9567 20.2787H18.4478V24Z" fill="#161616"/>
<path d="M17.5437 24C17.9109 24 18.0592 24 18.1173 24C18.7278 24 19.3239 23.8753 19.8846 23.6336V23.6336C21.2433 23.0478 22.2537 21.8321 22.4154 20.3613C22.4608 19.9491 22.4917 19.5451 22.4917 19.2097C22.4917 18.5374 22.4811 18.6756 22.4811 18.6756H19.0347L19.0347 19.2787C19.0347 19.831 18.587 20.2787 18.0347 20.2787H17.5437V24Z" fill="#161616"/>
<rect x="7.99976" y="13.7213" width="3.4" height="3.44928" fill="#161616"/>
<path d="M11.3623 10C12.3334 10 12.1223 10 12.6016 10C13.1988 10 13.7905 10.1219 14.3389 10.3584V10.3584C15.7043 10.9471 16.6976 12.1856 16.8617 13.6635C16.9066 14.0675 16.9416 14.4624 16.9541 14.7912C16.9966 15.9075 16.9541 17.4426 16.9541 17.4426H13.5077V14.7213C13.5077 14.169 13.06 13.7213 12.5077 13.7213H11.3623V10Z" fill="#161616"/>
<path d="M11.2734 14.8581C11.2734 14.0883 11.7738 13.5888 12.4002 13.5888" stroke="#161616" stroke-width="0.26"/>
<path d="M11.4939 12.5837C11.4939 13.3535 10.9936 13.853 10.3672 13.853" stroke="#161616" stroke-width="0.26"/>
<path d="M11.6038 13.4668L11.121 13.9758" stroke="#161616" stroke-width="0.4"/>
<rect width="3.4" height="3.44928" transform="matrix(-1 0 0 1 27.9998 15.4509)" fill="#161616"/>
<path d="M24.637 11.7296C23.6658 11.7296 23.877 11.7296 23.3976 11.7296C22.8005 11.7296 22.2087 11.8516 21.6604 12.088V12.088C20.2949 12.6767 19.3016 13.9152 19.1376 15.3931C19.0927 15.7972 19.0577 16.192 19.0452 16.5208C19.0026 17.6372 19.0452 19.1722 19.0452 19.1722H22.4916V16.4509C22.4916 15.8986 22.9393 15.4509 23.4916 15.4509H24.637V11.7296Z" fill="#161616"/>
<path d="M24.7263 16.5877C24.7263 15.8179 24.226 15.3184 23.5996 15.3184" stroke="#161616" stroke-width="0.26"/>
<path d="M24.5059 14.3134C24.5058 15.0831 25.0062 15.5826 25.6326 15.5826" stroke="#161616" stroke-width="0.26"/>
<path d="M24.3955 15.1964L24.8782 15.7054" stroke="#161616" stroke-width="0.4"/>
</svg>